<svg xmlns="http://www.w3.org/2000/svg" viewBox="0 0 25 25"><title>Help_Error</title><path d="M742.52,206.94a10.94,10.94,0,1,1-10.94,10.94,10.94,10.94,0,0,1,10.94-10.94m0-1.56a12.5,12.5,0,1,0,12.5,12.5,12.5,12.5,0,0,0-12.5-12.5h0Z" transform="translate(-730.02 -205.37)" style="fill:#808080"/><path d="M744.47,213a1.95,1.95,0,0,0-3.9,0,3.29,3.29,0,0,0,0,.36L742,221h1l1.41-7.67A3.55,3.55,0,0,0,744.47,213Z" transform="translate(-730.02 -205.37)" style="fill:#808080"/><circle cx="12.5" cy="18.16" r="1.53" style="fill:#808080"/></svg>